<svg width="68" height="66" viewBox="0 0 68 66" fill="none" xmlns="http://www.w3.org/2000/svg" xmlns:xlink="http://www.w3.org/1999/xlink">
<path d="M33.545,45.836C6.407,45.836 0,54.528 0,58.546C0,62.564 3.338,66 7.454,66L59.636,66C63.752,66 67.09,62.55 67.09,58.546C67.09,54.541 60.683,45.836 33.545,45.836Z" fill="#78B159"/>
<path d="M53.68,51.371C53.68,54.224 51.366,55.247 48.513,55.247C45.659,55.247 43.345,54.226 43.345,51.371L44.636,39.744C44.636,36.89 45.657,37.159 48.513,37.159C51.366,37.159 52.389,36.888 52.389,39.744L53.68,51.371Z" fill="#662113"/>
<path d="M64.981,35.655C56.427,27.949 52.962,16.914 48.512,16.914C44.061,16.914 40.597,27.949 32.045,35.655C28.45,38.893 30.163,40.766 35.09,40.392C39.483,40.058 43.59,39.011 48.512,39.011C53.434,39.011 57.543,40.06 61.934,40.392C66.861,40.766 68.574,38.892 64.981,35.655L64.981,35.655Z" fill="#5C913B"/>
<path d="M62.203,32.6C55.63,26.262 51.936,17.182 48.513,17.182C45.091,17.182 41.397,26.262 34.824,32.6C29.601,37.637 41.669,38.767 48.513,32.6C55.354,38.767 67.425,37.637 62.203,32.6Z" fill="#3E721D"/>
<path d="M62.203,27.466C55.63,21.544 51.936,13.062 48.513,13.062C45.091,13.062 41.397,21.544 34.824,27.466C29.601,32.172 41.669,33.227 48.513,27.466C55.354,33.227 67.425,32.17 62.203,27.466Z" fill="#5C913B"/>
<path d="M59.2,23.26C54.069,18.637 51.184,12.015 48.512,12.015C45.841,12.015 42.956,18.637 37.824,23.26C33.746,26.933 43.167,27.759 48.512,23.26C53.855,27.757 63.277,26.933 59.2,23.26Z" fill="#3E721D"/>
<path d="M59.2,19.411C54.069,14.787 51.184,8.166 48.512,8.166C45.841,8.166 42.956,14.787 37.824,19.411C33.746,23.084 43.167,23.91 48.512,19.411C53.855,23.91 63.277,23.086 59.2,19.411Z" fill="#5C913B"/>
<path d="M57.136,15.995C52.995,12.264 50.668,6.921 48.511,6.921C46.355,6.921 44.028,12.264 39.887,15.995C36.595,18.96 44.199,19.625 48.511,15.995C52.824,19.625 60.429,18.96 57.136,15.995Z" fill="#3E721D"/>
<path d="M57.136,13.099C52.995,9.368 50.668,4.025 48.511,4.025C46.355,4.025 44.028,9.368 39.887,13.099C36.595,16.064 44.199,16.729 48.511,13.099C52.824,16.729 60.429,16.064 57.136,13.099Z" fill="#5C913B"/>
<path d="M55.076,8.835C51.927,5.997 50.155,1.93 48.513,1.93C46.873,1.93 45.1,5.997 41.949,8.835C39.444,11.092 45.231,11.597 48.513,8.835C51.794,11.599 57.581,11.092 55.076,8.835Z" fill="#3E721D"/>
<path d="M55.076,6.905C51.927,4.066 50.155,0 48.513,0C46.873,0 45.1,4.066 41.949,6.905C39.444,9.162 45.231,9.667 48.513,6.905C51.794,9.667 57.581,9.162 55.076,6.905L55.076,6.905Z" fill="#5C913B"/>
<path d="M28.142,60.409C27.352,60.409 26.648,59.912 26.383,59.168L17.043,33.016C16.838,32.444 16.925,31.846 17.276,31.346C17.626,30.852 18.196,30.591 18.804,30.591L40.718,30.591C41.465,30.591 42.142,31.001 42.436,31.689L53.644,57.823C53.892,58.4 53.832,59.054 53.488,59.578C53.137,60.104 52.552,60.409 51.924,60.409L28.142,60.409L28.142,60.409Z" fill="#F4900C"/>
<path d="M7.594,60.409C6.966,60.409 6.379,60.092 6.035,59.57C5.69,59.045 5.632,58.381 5.878,57.804L17.093,31.635C17.386,30.949 18.064,30.503 18.81,30.503C19.557,30.503 20.235,30.951 20.528,31.635L31.743,57.802C31.991,58.381 31.93,59.043 31.585,59.568C31.24,60.092 30.653,60.409 30.025,60.409L7.594,60.409Z" fill="#FFCC4D"/>
<path d="M18.804,35.131L15.065,60.409L22.539,60.409L18.804,35.131Z" fill="#292F33"/>
<path d="M26.327,58.335L27.162,60.409L22.539,60.409L26.327,58.335ZM11.279,58.335L10.444,60.409L15.066,60.409L11.279,58.335Z" fill="#FFAC33"/>
<path d="M22.539,60.409C22.539,60.409 25.936,59.542 27.597,58.009L18.804,35.131L22.539,60.409ZM15.066,60.409C15.066,60.409 11.668,59.542 10.008,58.009L18.802,35.129L15.066,60.409Z" fill="#FFE8B6"/>
<path d="M25.392,9.393C25.358,9.393 25.329,9.404 25.295,9.404C25.358,9.098 25.392,8.783 25.392,8.459C25.392,5.885 23.307,3.8 20.733,3.8C19.072,3.8 17.626,4.674 16.801,5.982C16.284,5.785 15.729,5.666 15.142,5.666C12.766,5.666 10.828,7.449 10.541,9.747C10.015,9.536 9.454,9.393 8.852,9.393C6.279,9.393 4.193,11.478 4.193,14.052C4.193,16.625 6.279,18.711 8.852,18.711L25.392,18.711C27.966,18.711 30.051,16.625 30.051,14.052C30.051,11.478 27.966,9.393 25.392,9.393Z" fill="#E1E8ED"/>
</svg>
